<mxfile host="Electron" modified="2024-05-15T11:09:16.230Z" agent="Mozilla/5.0 (X11; Linux x86_64) AppleWebKit/537.36 (KHTML, like Gecko) draw.io/24.2.5 Chrome/120.0.6099.109 Electron/28.1.0 Safari/537.36" etag="XoltNoJw1sNPc7-ilkL9" version="24.2.5" type="device">
  <diagram name="Page-1" id="BPlPTExTGZAS8UD_kNkC">
    <mxGraphModel dx="1364" dy="843" grid="1" gridSize="10" guides="1" tooltips="1" connect="1" arrows="1" fold="1" page="1" pageScale="1" pageWidth="850" pageHeight="1100" math="0" shadow="0">
      <root>
        <mxCell id="0" />
        <mxCell id="1" parent="0" />
        <mxCell id="_hv5jsCD5pj9koo_B9hL-1" value="modul(admin/pemateri)" style="swimlane;childLayout=stackLayout;resizeParent=1;resizeParentMax=0;startSize=20;html=1;" parent="1" vertex="1">
          <mxGeometry x="240.00000000000045" y="190" width="240" height="420" as="geometry" />
        </mxCell>
        <mxCell id="_hv5jsCD5pj9koo_B9hL-2" value="frontend" style="swimlane;startSize=20;html=1;" parent="_hv5jsCD5pj9koo_B9hL-1" vertex="1">
          <mxGeometry y="20" width="120" height="400" as="geometry" />
        </mxCell>
        <mxCell id="_hv5jsCD5pj9koo_B9hL-3" value="" style="ellipse;html=1;shape=startState;fillColor=#000000;strokeColor=#FFFFFF;" parent="_hv5jsCD5pj9koo_B9hL-2" vertex="1">
          <mxGeometry x="41.25" y="50" width="37.5" height="30" as="geometry" />
        </mxCell>
        <mxCell id="_hv5jsCD5pj9koo_B9hL-4" value="" style="edgeStyle=orthogonalEdgeStyle;html=1;verticalAlign=bottom;endArrow=open;endSize=8;strokeColor=#FFFFFF;rounded=0;" parent="_hv5jsCD5pj9koo_B9hL-2" source="_hv5jsCD5pj9koo_B9hL-3" edge="1">
          <mxGeometry relative="1" as="geometry">
            <mxPoint x="59.999999999999545" y="110" as="targetPoint" />
          </mxGeometry>
        </mxCell>
        <mxCell id="_hv5jsCD5pj9koo_B9hL-5" value="modul button" style="html=1;whiteSpace=wrap;" parent="_hv5jsCD5pj9koo_B9hL-2" vertex="1">
          <mxGeometry x="17.5" y="110" width="85" height="30" as="geometry" />
        </mxCell>
        <mxCell id="_hv5jsCD5pj9koo_B9hL-6" style="edgeStyle=orthogonalEdgeStyle;rounded=0;orthogonalLoop=1;jettySize=auto;html=1;exitX=0.5;exitY=1;exitDx=0;exitDy=0;entryX=0.5;entryY=0;entryDx=0;entryDy=0;" parent="_hv5jsCD5pj9koo_B9hL-2" source="_hv5jsCD5pj9koo_B9hL-7" target="_hv5jsCD5pj9koo_B9hL-8" edge="1">
          <mxGeometry relative="1" as="geometry" />
        </mxCell>
        <mxCell id="_hv5jsCD5pj9koo_B9hL-7" value="data mapel" style="html=1;whiteSpace=wrap;" parent="_hv5jsCD5pj9koo_B9hL-2" vertex="1">
          <mxGeometry x="17.5" y="170" width="85" height="30" as="geometry" />
        </mxCell>
        <mxCell id="_hv5jsCD5pj9koo_B9hL-8" value="crud modul" style="html=1;whiteSpace=wrap;" parent="_hv5jsCD5pj9koo_B9hL-2" vertex="1">
          <mxGeometry x="17.5" y="230" width="85" height="30" as="geometry" />
        </mxCell>
        <mxCell id="_hv5jsCD5pj9koo_B9hL-9" style="edgeStyle=orthogonalEdgeStyle;rounded=0;orthogonalLoop=1;jettySize=auto;html=1;exitX=0.5;exitY=1;exitDx=0;exitDy=0;entryX=0.5;entryY=0;entryDx=0;entryDy=0;" parent="_hv5jsCD5pj9koo_B9hL-2" source="_hv5jsCD5pj9koo_B9hL-10" target="_hv5jsCD5pj9koo_B9hL-11" edge="1">
          <mxGeometry relative="1" as="geometry" />
        </mxCell>
        <mxCell id="_hv5jsCD5pj9koo_B9hL-10" value="data modul" style="html=1;whiteSpace=wrap;" parent="_hv5jsCD5pj9koo_B9hL-2" vertex="1">
          <mxGeometry x="17.5" y="280" width="85" height="30" as="geometry" />
        </mxCell>
        <mxCell id="_hv5jsCD5pj9koo_B9hL-11" value="" style="ellipse;html=1;shape=endState;fillColor=#000000;strokeColor=#ffffff;" parent="_hv5jsCD5pj9koo_B9hL-2" vertex="1">
          <mxGeometry x="44.999999999999545" y="340" width="30" height="30" as="geometry" />
        </mxCell>
        <mxCell id="_hv5jsCD5pj9koo_B9hL-12" value="backend" style="swimlane;startSize=20;html=1;" parent="_hv5jsCD5pj9koo_B9hL-1" vertex="1">
          <mxGeometry x="120" y="20" width="120" height="400" as="geometry" />
        </mxCell>
        <mxCell id="_hv5jsCD5pj9koo_B9hL-13" value="ambil data mapel" style="html=1;whiteSpace=wrap;" parent="_hv5jsCD5pj9koo_B9hL-12" vertex="1">
          <mxGeometry x="23" y="110" width="85" height="30" as="geometry" />
        </mxCell>
        <mxCell id="_hv5jsCD5pj9koo_B9hL-14" value="operasi crud" style="html=1;whiteSpace=wrap;" parent="_hv5jsCD5pj9koo_B9hL-12" vertex="1">
          <mxGeometry x="23" y="230" width="85" height="30" as="geometry" />
        </mxCell>
        <mxCell id="_hv5jsCD5pj9koo_B9hL-15" style="edgeStyle=orthogonalEdgeStyle;rounded=0;orthogonalLoop=1;jettySize=auto;html=1;exitX=1;exitY=0.5;exitDx=0;exitDy=0;entryX=0;entryY=0.5;entryDx=0;entryDy=0;" parent="_hv5jsCD5pj9koo_B9hL-1" source="_hv5jsCD5pj9koo_B9hL-5" target="_hv5jsCD5pj9koo_B9hL-13" edge="1">
          <mxGeometry relative="1" as="geometry" />
        </mxCell>
        <mxCell id="_hv5jsCD5pj9koo_B9hL-16" style="edgeStyle=orthogonalEdgeStyle;rounded=0;orthogonalLoop=1;jettySize=auto;html=1;exitX=0.5;exitY=1;exitDx=0;exitDy=0;entryX=1;entryY=0.5;entryDx=0;entryDy=0;" parent="_hv5jsCD5pj9koo_B9hL-1" source="_hv5jsCD5pj9koo_B9hL-13" target="_hv5jsCD5pj9koo_B9hL-7" edge="1">
          <mxGeometry relative="1" as="geometry" />
        </mxCell>
        <mxCell id="_hv5jsCD5pj9koo_B9hL-17" style="edgeStyle=orthogonalEdgeStyle;rounded=0;orthogonalLoop=1;jettySize=auto;html=1;exitX=1;exitY=0.5;exitDx=0;exitDy=0;entryX=0;entryY=0.5;entryDx=0;entryDy=0;" parent="_hv5jsCD5pj9koo_B9hL-1" source="_hv5jsCD5pj9koo_B9hL-8" target="_hv5jsCD5pj9koo_B9hL-14" edge="1">
          <mxGeometry relative="1" as="geometry" />
        </mxCell>
        <mxCell id="_hv5jsCD5pj9koo_B9hL-18" style="edgeStyle=orthogonalEdgeStyle;rounded=0;orthogonalLoop=1;jettySize=auto;html=1;exitX=0.5;exitY=1;exitDx=0;exitDy=0;entryX=1;entryY=0.5;entryDx=0;entryDy=0;" parent="_hv5jsCD5pj9koo_B9hL-1" source="_hv5jsCD5pj9koo_B9hL-14" target="_hv5jsCD5pj9koo_B9hL-10" edge="1">
          <mxGeometry relative="1" as="geometry">
            <mxPoint x="99.99999999999955" y="340" as="targetPoint" />
          </mxGeometry>
        </mxCell>
      </root>
    </mxGraphModel>
  </diagram>
</mxfile>
